<svg width="24" height="31" viewBox="0 0 24 31" fill="none" xmlns="http://www.w3.org/2000/svg">
<path d="M9.20781 18.6369L6.3637 16.9378C4.81439 16.0122 2.8327 17.041 2.69821 18.8407L2.00688 28.0923C1.90168 29.5002 3.01563 30.7005 4.42747 30.7005H12.1281H19.8288C21.2407 30.7005 22.3546 29.5002 22.2494 28.0923L21.5678 18.9701C21.431 17.1397 19.3906 16.1175 17.8427 17.1039L15.5813 18.545C13.6452 19.7788 11.1786 19.8144 9.20781 18.6369Z" fill="#E7E1DB"/>
<path d="M18.8035 10.6752C18.8035 14.3618 15.8149 17.3503 12.1283 17.3503C8.4417 17.3503 5.45312 14.3618 5.45312 10.6752C5.45312 6.98857 8.4417 4 12.1283 4C15.8149 4 18.8035 6.98857 18.8035 10.6752Z" fill="#E7E1DB"/>
</svg>
