<svg width="94" height="113" viewBox="0 0 94 113" fill="none" xmlns="http://www.w3.org/2000/svg">
<path d="M44.7642 1.42463C45.3346 -0.475131 48.0247 -0.475131 48.5952 1.42463L59.7884 38.7015C59.9541 39.2534 60.3498 39.707 60.8741 39.9461L92.1891 54.2257C93.7493 54.9372 93.7493 57.1537 92.189 57.8651L60.8741 72.1448C60.3498 72.3838 59.9541 72.8374 59.7884 73.3893L48.5952 110.666C48.0247 112.566 45.3346 112.566 44.7642 110.666L33.5709 73.3893C33.4052 72.8374 33.0095 72.3838 32.4852 72.1448L1.17032 57.8651C-0.389948 57.1537 -0.389941 54.9372 1.17033 54.2257L32.4852 39.9461C33.0095 39.707 33.4052 39.2534 33.5709 38.7015L44.7642 1.42463Z" fill="#BDD3E9"/>
</svg>
