<svg width="99" height="100" viewBox="0 0 99 100" fill="none" xmlns="http://www.w3.org/2000/svg">
<path fill-rule="evenodd" clip-rule="evenodd" d="M49.084 0C76.1922 0 98.1686 9.74461 98.1689 21.7646C98.1689 27.121 93.8036 32.0238 86.5664 35.8154C93.8036 39.6071 98.1689 44.5098 98.1689 49.8662C98.1688 55.2225 93.8034 60.1244 86.5664 63.916C93.8036 67.7076 98.1688 72.6105 98.1689 77.9668C98.1689 89.987 76.1925 99.7314 49.084 99.7314C21.9756 99.7314 0 89.9869 0 77.9668C0.000161602 72.6106 4.36458 67.7076 11.6016 63.916C4.36479 60.1244 0.000103596 55.2224 0 49.8662C0 44.5099 4.36456 39.6071 11.6016 35.8154C4.36459 32.0238 0 27.1209 0 21.7646C0.000362653 9.74465 21.9758 6.21691e-05 49.084 0Z" fill="#BDD3E9"/>
</svg>
